<mxfile host="Electron" agent="Mozilla/5.0 (Macintosh; Intel Mac OS X 10_15_7) AppleWebKit/537.36 (KHTML, like Gecko) draw.io/24.7.8 Chrome/128.0.6613.36 Electron/32.0.1 Safari/537.36" version="24.7.8">
  <diagram name="Page-1" id="87S1wU0T3jh5N_OtVyYs">
    <mxGraphModel dx="1114" dy="793" grid="1" gridSize="10" guides="1" tooltips="1" connect="1" arrows="1" fold="1" page="1" pageScale="1" pageWidth="1100" pageHeight="1700" math="0" shadow="0">
      <root>
        <mxCell id="0" />
        <mxCell id="1" parent="0" />
        <mxCell id="XsW1wYsBtpVRTclEtIRg-6" value="" style="rounded=0;whiteSpace=wrap;html=1;" vertex="1" parent="1">
          <mxGeometry x="130" y="80" width="290" height="410" as="geometry" />
        </mxCell>
        <mxCell id="XsW1wYsBtpVRTclEtIRg-1" value="" style="ellipse;whiteSpace=wrap;html=1;aspect=fixed;" vertex="1" parent="1">
          <mxGeometry x="190" y="180" width="30" height="30" as="geometry" />
        </mxCell>
        <mxCell id="XsW1wYsBtpVRTclEtIRg-2" value="" style="ellipse;whiteSpace=wrap;html=1;aspect=fixed;" vertex="1" parent="1">
          <mxGeometry x="190" y="110" width="30" height="30" as="geometry" />
        </mxCell>
        <mxCell id="XsW1wYsBtpVRTclEtIRg-10" style="rounded=0;orthogonalLoop=1;jettySize=auto;html=1;entryX=0;entryY=0.5;entryDx=0;entryDy=0;jumpStyle=line;" edge="1" parent="1" source="XsW1wYsBtpVRTclEtIRg-3" target="XsW1wYsBtpVRTclEtIRg-2">
          <mxGeometry relative="1" as="geometry" />
        </mxCell>
        <mxCell id="XsW1wYsBtpVRTclEtIRg-11" style="rounded=0;orthogonalLoop=1;jettySize=auto;html=1;entryX=0;entryY=0.5;entryDx=0;entryDy=0;" edge="1" parent="1" source="XsW1wYsBtpVRTclEtIRg-3" target="XsW1wYsBtpVRTclEtIRg-1">
          <mxGeometry relative="1" as="geometry" />
        </mxCell>
        <mxCell id="XsW1wYsBtpVRTclEtIRg-12" style="rounded=0;orthogonalLoop=1;jettySize=auto;html=1;entryX=0;entryY=0.5;entryDx=0;entryDy=0;" edge="1" parent="1" source="XsW1wYsBtpVRTclEtIRg-3" target="XsW1wYsBtpVRTclEtIRg-7">
          <mxGeometry relative="1" as="geometry" />
        </mxCell>
        <mxCell id="XsW1wYsBtpVRTclEtIRg-13" style="rounded=0;orthogonalLoop=1;jettySize=auto;html=1;entryX=0;entryY=0.5;entryDx=0;entryDy=0;" edge="1" parent="1" source="XsW1wYsBtpVRTclEtIRg-3" target="XsW1wYsBtpVRTclEtIRg-8">
          <mxGeometry relative="1" as="geometry" />
        </mxCell>
        <mxCell id="XsW1wYsBtpVRTclEtIRg-3" value="X1" style="ellipse;whiteSpace=wrap;html=1;aspect=fixed;" vertex="1" parent="1">
          <mxGeometry x="40" y="140" width="30" height="30" as="geometry" />
        </mxCell>
        <mxCell id="XsW1wYsBtpVRTclEtIRg-14" style="rounded=0;orthogonalLoop=1;jettySize=auto;html=1;entryX=0;entryY=0.5;entryDx=0;entryDy=0;" edge="1" parent="1" source="XsW1wYsBtpVRTclEtIRg-4" target="XsW1wYsBtpVRTclEtIRg-2">
          <mxGeometry relative="1" as="geometry" />
        </mxCell>
        <mxCell id="XsW1wYsBtpVRTclEtIRg-15" style="rounded=0;orthogonalLoop=1;jettySize=auto;html=1;entryX=0;entryY=0.5;entryDx=0;entryDy=0;" edge="1" parent="1" source="XsW1wYsBtpVRTclEtIRg-4" target="XsW1wYsBtpVRTclEtIRg-1">
          <mxGeometry relative="1" as="geometry" />
        </mxCell>
        <mxCell id="XsW1wYsBtpVRTclEtIRg-16" style="rounded=0;orthogonalLoop=1;jettySize=auto;html=1;" edge="1" parent="1" source="XsW1wYsBtpVRTclEtIRg-4">
          <mxGeometry relative="1" as="geometry">
            <mxPoint x="190" y="260" as="targetPoint" />
          </mxGeometry>
        </mxCell>
        <mxCell id="XsW1wYsBtpVRTclEtIRg-17" style="rounded=0;orthogonalLoop=1;jettySize=auto;html=1;entryX=0;entryY=0.5;entryDx=0;entryDy=0;" edge="1" parent="1" source="XsW1wYsBtpVRTclEtIRg-4" target="XsW1wYsBtpVRTclEtIRg-8">
          <mxGeometry relative="1" as="geometry" />
        </mxCell>
        <mxCell id="XsW1wYsBtpVRTclEtIRg-4" value="X2" style="ellipse;whiteSpace=wrap;html=1;aspect=fixed;" vertex="1" parent="1">
          <mxGeometry x="40" y="220" width="30" height="30" as="geometry" />
        </mxCell>
        <mxCell id="XsW1wYsBtpVRTclEtIRg-18" style="rounded=0;orthogonalLoop=1;jettySize=auto;html=1;" edge="1" parent="1" source="XsW1wYsBtpVRTclEtIRg-5">
          <mxGeometry relative="1" as="geometry">
            <mxPoint x="190" y="130" as="targetPoint" />
          </mxGeometry>
        </mxCell>
        <mxCell id="XsW1wYsBtpVRTclEtIRg-19" style="rounded=0;orthogonalLoop=1;jettySize=auto;html=1;entryX=0;entryY=1;entryDx=0;entryDy=0;" edge="1" parent="1" source="XsW1wYsBtpVRTclEtIRg-5" target="XsW1wYsBtpVRTclEtIRg-1">
          <mxGeometry relative="1" as="geometry" />
        </mxCell>
        <mxCell id="XsW1wYsBtpVRTclEtIRg-20" style="rounded=0;orthogonalLoop=1;jettySize=auto;html=1;entryX=0;entryY=0.5;entryDx=0;entryDy=0;" edge="1" parent="1" source="XsW1wYsBtpVRTclEtIRg-5" target="XsW1wYsBtpVRTclEtIRg-7">
          <mxGeometry relative="1" as="geometry" />
        </mxCell>
        <mxCell id="XsW1wYsBtpVRTclEtIRg-21" style="rounded=0;orthogonalLoop=1;jettySize=auto;html=1;entryX=0;entryY=0.5;entryDx=0;entryDy=0;" edge="1" parent="1" source="XsW1wYsBtpVRTclEtIRg-5" target="XsW1wYsBtpVRTclEtIRg-8">
          <mxGeometry relative="1" as="geometry" />
        </mxCell>
        <mxCell id="XsW1wYsBtpVRTclEtIRg-5" value="X3" style="ellipse;whiteSpace=wrap;html=1;aspect=fixed;" vertex="1" parent="1">
          <mxGeometry x="40" y="300" width="30" height="30" as="geometry" />
        </mxCell>
        <mxCell id="XsW1wYsBtpVRTclEtIRg-7" value="" style="ellipse;whiteSpace=wrap;html=1;aspect=fixed;" vertex="1" parent="1">
          <mxGeometry x="190" y="250" width="30" height="30" as="geometry" />
        </mxCell>
        <mxCell id="XsW1wYsBtpVRTclEtIRg-8" value="" style="ellipse;whiteSpace=wrap;html=1;aspect=fixed;" vertex="1" parent="1">
          <mxGeometry x="190" y="440" width="30" height="30" as="geometry" />
        </mxCell>
        <mxCell id="XsW1wYsBtpVRTclEtIRg-9" value="" style="endArrow=none;dashed=1;html=1;dashPattern=1 3;strokeWidth=2;rounded=0;" edge="1" parent="1">
          <mxGeometry width="50" height="50" relative="1" as="geometry">
            <mxPoint x="204.5" y="390" as="sourcePoint" />
            <mxPoint x="204.5" y="310" as="targetPoint" />
          </mxGeometry>
        </mxCell>
        <mxCell id="XsW1wYsBtpVRTclEtIRg-23" value="Hidden Layers" style="text;html=1;align=center;verticalAlign=middle;whiteSpace=wrap;rounded=0;fontSize=14;" vertex="1" parent="1">
          <mxGeometry x="225" y="20" width="100" height="30" as="geometry" />
        </mxCell>
        <mxCell id="XsW1wYsBtpVRTclEtIRg-24" value="Input" style="text;html=1;align=center;verticalAlign=middle;whiteSpace=wrap;rounded=0;fontSize=14;" vertex="1" parent="1">
          <mxGeometry x="20" y="20" width="100" height="30" as="geometry" />
        </mxCell>
        <mxCell id="XsW1wYsBtpVRTclEtIRg-26" value="O" style="ellipse;whiteSpace=wrap;html=1;aspect=fixed;" vertex="1" parent="1">
          <mxGeometry x="510" y="240" width="30" height="30" as="geometry" />
        </mxCell>
        <mxCell id="XsW1wYsBtpVRTclEtIRg-27" value="Output" style="text;html=1;align=center;verticalAlign=middle;whiteSpace=wrap;rounded=0;fontSize=14;" vertex="1" parent="1">
          <mxGeometry x="475" y="20" width="100" height="30" as="geometry" />
        </mxCell>
        <mxCell id="XsW1wYsBtpVRTclEtIRg-38" style="rounded=0;orthogonalLoop=1;jettySize=auto;html=1;entryX=0;entryY=0.5;entryDx=0;entryDy=0;" edge="1" parent="1" source="XsW1wYsBtpVRTclEtIRg-28" target="XsW1wYsBtpVRTclEtIRg-26">
          <mxGeometry relative="1" as="geometry" />
        </mxCell>
        <mxCell id="XsW1wYsBtpVRTclEtIRg-28" value="E2" style="ellipse;whiteSpace=wrap;html=1;aspect=fixed;" vertex="1" parent="1">
          <mxGeometry x="340" y="180" width="30" height="30" as="geometry" />
        </mxCell>
        <mxCell id="XsW1wYsBtpVRTclEtIRg-34" style="rounded=0;orthogonalLoop=1;jettySize=auto;html=1;entryX=0;entryY=0.5;entryDx=0;entryDy=0;" edge="1" parent="1" source="XsW1wYsBtpVRTclEtIRg-29" target="XsW1wYsBtpVRTclEtIRg-26">
          <mxGeometry relative="1" as="geometry" />
        </mxCell>
        <mxCell id="XsW1wYsBtpVRTclEtIRg-29" value="E1" style="ellipse;whiteSpace=wrap;html=1;aspect=fixed;" vertex="1" parent="1">
          <mxGeometry x="340" y="110" width="30" height="30" as="geometry" />
        </mxCell>
        <mxCell id="XsW1wYsBtpVRTclEtIRg-36" style="rounded=0;orthogonalLoop=1;jettySize=auto;html=1;entryX=0;entryY=0.5;entryDx=0;entryDy=0;" edge="1" parent="1" source="XsW1wYsBtpVRTclEtIRg-30" target="XsW1wYsBtpVRTclEtIRg-26">
          <mxGeometry relative="1" as="geometry" />
        </mxCell>
        <mxCell id="XsW1wYsBtpVRTclEtIRg-30" value="E3" style="ellipse;whiteSpace=wrap;html=1;aspect=fixed;" vertex="1" parent="1">
          <mxGeometry x="340" y="250" width="30" height="30" as="geometry" />
        </mxCell>
        <mxCell id="XsW1wYsBtpVRTclEtIRg-37" style="rounded=0;orthogonalLoop=1;jettySize=auto;html=1;entryX=0;entryY=0.5;entryDx=0;entryDy=0;" edge="1" parent="1" source="XsW1wYsBtpVRTclEtIRg-31" target="XsW1wYsBtpVRTclEtIRg-26">
          <mxGeometry relative="1" as="geometry" />
        </mxCell>
        <mxCell id="XsW1wYsBtpVRTclEtIRg-31" value="En" style="ellipse;whiteSpace=wrap;html=1;aspect=fixed;" vertex="1" parent="1">
          <mxGeometry x="340" y="440" width="30" height="30" as="geometry" />
        </mxCell>
        <mxCell id="XsW1wYsBtpVRTclEtIRg-33" value="" style="endArrow=none;dashed=1;html=1;dashPattern=1 3;strokeWidth=2;rounded=0;" edge="1" parent="1">
          <mxGeometry width="50" height="50" relative="1" as="geometry">
            <mxPoint x="250" y="264.5" as="sourcePoint" />
            <mxPoint x="320" y="264.5" as="targetPoint" />
          </mxGeometry>
        </mxCell>
        <mxCell id="XsW1wYsBtpVRTclEtIRg-39" value="" style="rounded=0;whiteSpace=wrap;html=1;" vertex="1" parent="1">
          <mxGeometry x="770" y="90" width="250" height="410" as="geometry" />
        </mxCell>
        <mxCell id="XsW1wYsBtpVRTclEtIRg-40" value="" style="ellipse;whiteSpace=wrap;html=1;aspect=fixed;" vertex="1" parent="1">
          <mxGeometry x="830" y="190" width="30" height="30" as="geometry" />
        </mxCell>
        <mxCell id="XsW1wYsBtpVRTclEtIRg-41" value="" style="ellipse;whiteSpace=wrap;html=1;aspect=fixed;" vertex="1" parent="1">
          <mxGeometry x="830" y="120" width="30" height="30" as="geometry" />
        </mxCell>
        <mxCell id="XsW1wYsBtpVRTclEtIRg-42" style="rounded=0;orthogonalLoop=1;jettySize=auto;html=1;entryX=0;entryY=0.5;entryDx=0;entryDy=0;jumpStyle=line;" edge="1" parent="1" source="XsW1wYsBtpVRTclEtIRg-46" target="XsW1wYsBtpVRTclEtIRg-41">
          <mxGeometry relative="1" as="geometry" />
        </mxCell>
        <mxCell id="XsW1wYsBtpVRTclEtIRg-43" style="rounded=0;orthogonalLoop=1;jettySize=auto;html=1;entryX=0;entryY=0.5;entryDx=0;entryDy=0;" edge="1" parent="1" source="XsW1wYsBtpVRTclEtIRg-46" target="XsW1wYsBtpVRTclEtIRg-40">
          <mxGeometry relative="1" as="geometry" />
        </mxCell>
        <mxCell id="XsW1wYsBtpVRTclEtIRg-44" style="rounded=0;orthogonalLoop=1;jettySize=auto;html=1;entryX=0;entryY=0.5;entryDx=0;entryDy=0;" edge="1" parent="1" source="XsW1wYsBtpVRTclEtIRg-46" target="XsW1wYsBtpVRTclEtIRg-57">
          <mxGeometry relative="1" as="geometry" />
        </mxCell>
        <mxCell id="XsW1wYsBtpVRTclEtIRg-45" style="rounded=0;orthogonalLoop=1;jettySize=auto;html=1;entryX=0;entryY=0.5;entryDx=0;entryDy=0;" edge="1" parent="1" source="XsW1wYsBtpVRTclEtIRg-46" target="XsW1wYsBtpVRTclEtIRg-58">
          <mxGeometry relative="1" as="geometry" />
        </mxCell>
        <mxCell id="XsW1wYsBtpVRTclEtIRg-46" value="X1" style="ellipse;whiteSpace=wrap;html=1;aspect=fixed;" vertex="1" parent="1">
          <mxGeometry x="680" y="150" width="30" height="30" as="geometry" />
        </mxCell>
        <mxCell id="XsW1wYsBtpVRTclEtIRg-47" style="rounded=0;orthogonalLoop=1;jettySize=auto;html=1;entryX=0;entryY=0.5;entryDx=0;entryDy=0;" edge="1" parent="1" source="XsW1wYsBtpVRTclEtIRg-51" target="XsW1wYsBtpVRTclEtIRg-41">
          <mxGeometry relative="1" as="geometry" />
        </mxCell>
        <mxCell id="XsW1wYsBtpVRTclEtIRg-48" style="rounded=0;orthogonalLoop=1;jettySize=auto;html=1;entryX=0;entryY=0.5;entryDx=0;entryDy=0;" edge="1" parent="1" source="XsW1wYsBtpVRTclEtIRg-51" target="XsW1wYsBtpVRTclEtIRg-40">
          <mxGeometry relative="1" as="geometry" />
        </mxCell>
        <mxCell id="XsW1wYsBtpVRTclEtIRg-49" style="rounded=0;orthogonalLoop=1;jettySize=auto;html=1;" edge="1" parent="1" source="XsW1wYsBtpVRTclEtIRg-51">
          <mxGeometry relative="1" as="geometry">
            <mxPoint x="830" y="270" as="targetPoint" />
          </mxGeometry>
        </mxCell>
        <mxCell id="XsW1wYsBtpVRTclEtIRg-50" style="rounded=0;orthogonalLoop=1;jettySize=auto;html=1;entryX=0;entryY=0.5;entryDx=0;entryDy=0;" edge="1" parent="1" source="XsW1wYsBtpVRTclEtIRg-51" target="XsW1wYsBtpVRTclEtIRg-58">
          <mxGeometry relative="1" as="geometry" />
        </mxCell>
        <mxCell id="XsW1wYsBtpVRTclEtIRg-51" value="X2" style="ellipse;whiteSpace=wrap;html=1;aspect=fixed;" vertex="1" parent="1">
          <mxGeometry x="680" y="230" width="30" height="30" as="geometry" />
        </mxCell>
        <mxCell id="XsW1wYsBtpVRTclEtIRg-52" style="rounded=0;orthogonalLoop=1;jettySize=auto;html=1;" edge="1" parent="1" source="XsW1wYsBtpVRTclEtIRg-56">
          <mxGeometry relative="1" as="geometry">
            <mxPoint x="830" y="140" as="targetPoint" />
          </mxGeometry>
        </mxCell>
        <mxCell id="XsW1wYsBtpVRTclEtIRg-53" style="rounded=0;orthogonalLoop=1;jettySize=auto;html=1;entryX=0;entryY=1;entryDx=0;entryDy=0;" edge="1" parent="1" source="XsW1wYsBtpVRTclEtIRg-56" target="XsW1wYsBtpVRTclEtIRg-40">
          <mxGeometry relative="1" as="geometry" />
        </mxCell>
        <mxCell id="XsW1wYsBtpVRTclEtIRg-54" style="rounded=0;orthogonalLoop=1;jettySize=auto;html=1;entryX=0;entryY=0.5;entryDx=0;entryDy=0;" edge="1" parent="1" source="XsW1wYsBtpVRTclEtIRg-56" target="XsW1wYsBtpVRTclEtIRg-57">
          <mxGeometry relative="1" as="geometry" />
        </mxCell>
        <mxCell id="XsW1wYsBtpVRTclEtIRg-55" style="rounded=0;orthogonalLoop=1;jettySize=auto;html=1;entryX=0;entryY=0.5;entryDx=0;entryDy=0;" edge="1" parent="1" source="XsW1wYsBtpVRTclEtIRg-56" target="XsW1wYsBtpVRTclEtIRg-58">
          <mxGeometry relative="1" as="geometry" />
        </mxCell>
        <mxCell id="XsW1wYsBtpVRTclEtIRg-56" value="X3" style="ellipse;whiteSpace=wrap;html=1;aspect=fixed;" vertex="1" parent="1">
          <mxGeometry x="680" y="310" width="30" height="30" as="geometry" />
        </mxCell>
        <mxCell id="XsW1wYsBtpVRTclEtIRg-57" value="" style="ellipse;whiteSpace=wrap;html=1;aspect=fixed;" vertex="1" parent="1">
          <mxGeometry x="830" y="260" width="30" height="30" as="geometry" />
        </mxCell>
        <mxCell id="XsW1wYsBtpVRTclEtIRg-58" value="" style="ellipse;whiteSpace=wrap;html=1;aspect=fixed;" vertex="1" parent="1">
          <mxGeometry x="830" y="450" width="30" height="30" as="geometry" />
        </mxCell>
        <mxCell id="XsW1wYsBtpVRTclEtIRg-59" value="" style="endArrow=none;dashed=1;html=1;dashPattern=1 3;strokeWidth=2;rounded=0;" edge="1" parent="1">
          <mxGeometry width="50" height="50" relative="1" as="geometry">
            <mxPoint x="844.5" y="400" as="sourcePoint" />
            <mxPoint x="844.5" y="320" as="targetPoint" />
          </mxGeometry>
        </mxCell>
        <mxCell id="XsW1wYsBtpVRTclEtIRg-60" value="Hidden Layers" style="text;html=1;align=center;verticalAlign=middle;whiteSpace=wrap;rounded=0;fontSize=14;" vertex="1" parent="1">
          <mxGeometry x="830" y="30" width="100" height="30" as="geometry" />
        </mxCell>
        <mxCell id="XsW1wYsBtpVRTclEtIRg-61" value="Input" style="text;html=1;align=center;verticalAlign=middle;whiteSpace=wrap;rounded=0;fontSize=14;" vertex="1" parent="1">
          <mxGeometry x="660" y="30" width="100" height="30" as="geometry" />
        </mxCell>
        <mxCell id="XsW1wYsBtpVRTclEtIRg-63" value="Output" style="text;html=1;align=center;verticalAlign=middle;whiteSpace=wrap;rounded=0;fontSize=14;" vertex="1" parent="1">
          <mxGeometry x="1035" y="30" width="100" height="30" as="geometry" />
        </mxCell>
        <mxCell id="XsW1wYsBtpVRTclEtIRg-65" value="E2" style="ellipse;whiteSpace=wrap;html=1;aspect=fixed;" vertex="1" parent="1">
          <mxGeometry x="1070" y="190" width="30" height="30" as="geometry" />
        </mxCell>
        <mxCell id="XsW1wYsBtpVRTclEtIRg-67" value="E1" style="ellipse;whiteSpace=wrap;html=1;aspect=fixed;" vertex="1" parent="1">
          <mxGeometry x="1070" y="120" width="30" height="30" as="geometry" />
        </mxCell>
        <mxCell id="XsW1wYsBtpVRTclEtIRg-69" value="E3" style="ellipse;whiteSpace=wrap;html=1;aspect=fixed;" vertex="1" parent="1">
          <mxGeometry x="1070" y="260" width="30" height="30" as="geometry" />
        </mxCell>
        <mxCell id="XsW1wYsBtpVRTclEtIRg-71" value="En" style="ellipse;whiteSpace=wrap;html=1;aspect=fixed;" vertex="1" parent="1">
          <mxGeometry x="1070" y="450" width="30" height="30" as="geometry" />
        </mxCell>
        <mxCell id="XsW1wYsBtpVRTclEtIRg-72" value="" style="endArrow=none;dashed=1;html=1;dashPattern=1 3;strokeWidth=2;rounded=0;" edge="1" parent="1">
          <mxGeometry width="50" height="50" relative="1" as="geometry">
            <mxPoint x="890" y="274.5" as="sourcePoint" />
            <mxPoint x="960" y="274.5" as="targetPoint" />
          </mxGeometry>
        </mxCell>
        <mxCell id="XsW1wYsBtpVRTclEtIRg-78" style="edgeStyle=orthogonalEdgeStyle;rounded=0;orthogonalLoop=1;jettySize=auto;html=1;exitX=1;exitY=0.5;exitDx=0;exitDy=0;" edge="1" parent="1" source="XsW1wYsBtpVRTclEtIRg-73" target="XsW1wYsBtpVRTclEtIRg-65">
          <mxGeometry relative="1" as="geometry" />
        </mxCell>
        <mxCell id="XsW1wYsBtpVRTclEtIRg-87" style="rounded=0;orthogonalLoop=1;jettySize=auto;html=1;entryX=0;entryY=0.5;entryDx=0;entryDy=0;" edge="1" parent="1" source="XsW1wYsBtpVRTclEtIRg-73" target="XsW1wYsBtpVRTclEtIRg-71">
          <mxGeometry relative="1" as="geometry" />
        </mxCell>
        <mxCell id="XsW1wYsBtpVRTclEtIRg-88" style="rounded=0;orthogonalLoop=1;jettySize=auto;html=1;entryX=0;entryY=0.5;entryDx=0;entryDy=0;" edge="1" parent="1" source="XsW1wYsBtpVRTclEtIRg-73" target="XsW1wYsBtpVRTclEtIRg-69">
          <mxGeometry relative="1" as="geometry" />
        </mxCell>
        <mxCell id="XsW1wYsBtpVRTclEtIRg-89" style="rounded=0;orthogonalLoop=1;jettySize=auto;html=1;entryX=0;entryY=0.5;entryDx=0;entryDy=0;" edge="1" parent="1" source="XsW1wYsBtpVRTclEtIRg-73" target="XsW1wYsBtpVRTclEtIRg-67">
          <mxGeometry relative="1" as="geometry" />
        </mxCell>
        <mxCell id="XsW1wYsBtpVRTclEtIRg-73" value="" style="ellipse;whiteSpace=wrap;html=1;aspect=fixed;" vertex="1" parent="1">
          <mxGeometry x="960" y="190" width="30" height="30" as="geometry" />
        </mxCell>
        <mxCell id="XsW1wYsBtpVRTclEtIRg-77" style="edgeStyle=orthogonalEdgeStyle;rounded=0;orthogonalLoop=1;jettySize=auto;html=1;entryX=0;entryY=0.5;entryDx=0;entryDy=0;" edge="1" parent="1" source="XsW1wYsBtpVRTclEtIRg-74" target="XsW1wYsBtpVRTclEtIRg-67">
          <mxGeometry relative="1" as="geometry" />
        </mxCell>
        <mxCell id="XsW1wYsBtpVRTclEtIRg-90" style="rounded=0;orthogonalLoop=1;jettySize=auto;html=1;entryX=0;entryY=0.5;entryDx=0;entryDy=0;" edge="1" parent="1" source="XsW1wYsBtpVRTclEtIRg-74" target="XsW1wYsBtpVRTclEtIRg-65">
          <mxGeometry relative="1" as="geometry" />
        </mxCell>
        <mxCell id="XsW1wYsBtpVRTclEtIRg-91" style="rounded=0;orthogonalLoop=1;jettySize=auto;html=1;entryX=0;entryY=0.5;entryDx=0;entryDy=0;" edge="1" parent="1" source="XsW1wYsBtpVRTclEtIRg-74" target="XsW1wYsBtpVRTclEtIRg-69">
          <mxGeometry relative="1" as="geometry" />
        </mxCell>
        <mxCell id="XsW1wYsBtpVRTclEtIRg-92" style="rounded=0;orthogonalLoop=1;jettySize=auto;html=1;entryX=0;entryY=0.5;entryDx=0;entryDy=0;" edge="1" parent="1" source="XsW1wYsBtpVRTclEtIRg-74" target="XsW1wYsBtpVRTclEtIRg-71">
          <mxGeometry relative="1" as="geometry" />
        </mxCell>
        <mxCell id="XsW1wYsBtpVRTclEtIRg-74" value="" style="ellipse;whiteSpace=wrap;html=1;aspect=fixed;" vertex="1" parent="1">
          <mxGeometry x="960" y="120" width="30" height="30" as="geometry" />
        </mxCell>
        <mxCell id="XsW1wYsBtpVRTclEtIRg-79" style="edgeStyle=orthogonalEdgeStyle;rounded=0;orthogonalLoop=1;jettySize=auto;html=1;entryX=0;entryY=0.5;entryDx=0;entryDy=0;" edge="1" parent="1" source="XsW1wYsBtpVRTclEtIRg-75" target="XsW1wYsBtpVRTclEtIRg-69">
          <mxGeometry relative="1" as="geometry" />
        </mxCell>
        <mxCell id="XsW1wYsBtpVRTclEtIRg-82" style="rounded=0;orthogonalLoop=1;jettySize=auto;html=1;entryX=0;entryY=0.5;entryDx=0;entryDy=0;" edge="1" parent="1" source="XsW1wYsBtpVRTclEtIRg-75" target="XsW1wYsBtpVRTclEtIRg-71">
          <mxGeometry relative="1" as="geometry" />
        </mxCell>
        <mxCell id="XsW1wYsBtpVRTclEtIRg-85" style="rounded=0;orthogonalLoop=1;jettySize=auto;html=1;entryX=0;entryY=0.5;entryDx=0;entryDy=0;" edge="1" parent="1" source="XsW1wYsBtpVRTclEtIRg-75" target="XsW1wYsBtpVRTclEtIRg-65">
          <mxGeometry relative="1" as="geometry" />
        </mxCell>
        <mxCell id="XsW1wYsBtpVRTclEtIRg-86" style="rounded=0;orthogonalLoop=1;jettySize=auto;html=1;entryX=0;entryY=0.5;entryDx=0;entryDy=0;" edge="1" parent="1" source="XsW1wYsBtpVRTclEtIRg-75" target="XsW1wYsBtpVRTclEtIRg-67">
          <mxGeometry relative="1" as="geometry" />
        </mxCell>
        <mxCell id="XsW1wYsBtpVRTclEtIRg-75" value="" style="ellipse;whiteSpace=wrap;html=1;aspect=fixed;" vertex="1" parent="1">
          <mxGeometry x="960" y="260" width="30" height="30" as="geometry" />
        </mxCell>
        <mxCell id="XsW1wYsBtpVRTclEtIRg-80" style="rounded=0;orthogonalLoop=1;jettySize=auto;html=1;exitX=1;exitY=0.5;exitDx=0;exitDy=0;entryX=0;entryY=0.5;entryDx=0;entryDy=0;" edge="1" parent="1" source="XsW1wYsBtpVRTclEtIRg-76" target="XsW1wYsBtpVRTclEtIRg-71">
          <mxGeometry relative="1" as="geometry" />
        </mxCell>
        <mxCell id="XsW1wYsBtpVRTclEtIRg-81" style="rounded=0;orthogonalLoop=1;jettySize=auto;html=1;entryX=0;entryY=0.5;entryDx=0;entryDy=0;" edge="1" parent="1" source="XsW1wYsBtpVRTclEtIRg-76" target="XsW1wYsBtpVRTclEtIRg-69">
          <mxGeometry relative="1" as="geometry" />
        </mxCell>
        <mxCell id="XsW1wYsBtpVRTclEtIRg-83" style="rounded=0;orthogonalLoop=1;jettySize=auto;html=1;entryX=0;entryY=0.5;entryDx=0;entryDy=0;" edge="1" parent="1" source="XsW1wYsBtpVRTclEtIRg-76" target="XsW1wYsBtpVRTclEtIRg-65">
          <mxGeometry relative="1" as="geometry" />
        </mxCell>
        <mxCell id="XsW1wYsBtpVRTclEtIRg-84" style="rounded=0;orthogonalLoop=1;jettySize=auto;html=1;entryX=0;entryY=0.5;entryDx=0;entryDy=0;" edge="1" parent="1" source="XsW1wYsBtpVRTclEtIRg-76" target="XsW1wYsBtpVRTclEtIRg-67">
          <mxGeometry relative="1" as="geometry" />
        </mxCell>
        <mxCell id="XsW1wYsBtpVRTclEtIRg-76" value="" style="ellipse;whiteSpace=wrap;html=1;aspect=fixed;" vertex="1" parent="1">
          <mxGeometry x="960" y="450" width="30" height="30" as="geometry" />
        </mxCell>
      </root>
    </mxGraphModel>
  </diagram>
</mxfile>
